<?xml version="1.0" encoding="UTF-8" standalone="no"?>
<!-- Created with Inkscape (http://www.inkscape.org/) -->

<svg
   width="210mm"
   height="297mm"
   viewBox="0 0 210 297"
   version="1.1"
   id="svg5"
   inkscape:version="1.2 (dc2aedaf03, 2022-05-15)"
   sodipodi:docname="Icon.svg"
   xmlns:inkscape="http://www.inkscape.org/namespaces/inkscape"
   xmlns:sodipodi="http://sodipodi.sourceforge.net/DTD/sodipodi-0.dtd"
   xmlns="http://www.w3.org/2000/svg"
   xmlns:svg="http://www.w3.org/2000/svg">
  <sodipodi:namedview
     id="namedview7"
     pagecolor="#ffffff"
     bordercolor="#000000"
     borderopacity="0.25"
     inkscape:showpageshadow="2"
     inkscape:pageopacity="0.0"
     inkscape:pagecheckerboard="0"
     inkscape:deskcolor="#d1d1d1"
     inkscape:document-units="mm"
     showgrid="false"
     inkscape:zoom="1.829812"
     inkscape:cx="294.01928"
     inkscape:cy="1213.2394"
     inkscape:window-width="1935"
     inkscape:window-height="1342"
     inkscape:window-x="0"
     inkscape:window-y="0"
     inkscape:window-maximized="0"
     inkscape:current-layer="layer1" />
  <defs
     id="defs2" />
  <g
     inkscape:label="Layer 1"
     inkscape:groupmode="layer"
     id="layer1">
    <path
       id="path160"
       style="fill:#ff0000;stroke:none;stroke-width:0.264583"
       d="M 2.62517,285.68096 A 28.160053,28.160053 0 0 0 12.238241,297 l 5.436854,-9.36111 a 17.387659,17.387659 0 0 1 -5.286501,-6.50881 17.387659,17.387659 0 0 1 -1.622496,-7.33636 L 0.148545,270.91977 a 28.160053,28.160053 0 0 0 2.476625,14.76119 z" />
    <path
       id="path494"
       style="fill:#ffcc00;stroke:none;stroke-width:0.264583"
       d="M 37.922161,256.74253 A 28.160053,28.160053 0 0 0 23.94731,251.71905 l -0.04914,10.8253 a 17.387659,17.387659 0 0 1 7.826758,3.00892 17.387659,17.387659 0 0 1 5.062413,5.55218 l 10.63755,-2.79898 a 28.160053,28.160053 0 0 0 -9.50273,-11.56394 z" />
    <path
       id="path494-7"
       style="fill:#008000;stroke:none;stroke-width:0.264583"
       d="m 46.271471,284.58723 a 28.160053,28.160053 0 0 0 1.43901,-14.78042 l -10.5061,2.6099 a 17.387659,17.387659 0 0 1 -0.99541,8.32592 17.387659,17.387659 0 0 1 -4.139475,6.27051 l 5.324785,9.62489 a 28.160053,28.160053 0 0 0 8.87719,-12.0508 z" />
    <path
       id="path523"
       style="fill:#ff6600;stroke:none;stroke-width:0.264583"
       d="M 8.810893,257.91145 A 28.160053,28.160053 0 0 0 0.36149,270.12373 l 10.448353,2.83226 a 17.387659,17.387659 0 0 1 4.92106,-6.78933 17.387659,17.387659 0 0 1 6.667599,-3.46376 l 0.03167,-10.99958 a 28.160053,28.160053 0 0 0 -13.619284,6.20813 z" />
    <path
       id="path61"
       style="fill:#333333;stroke:#ffffff;stroke-width:0.179474"
       d="m 31.838326,282.61717 c -3.770795,4.35755 -10.33496,4.85497 -14.661471,1.11103 -4.32651,-3.74394 -4.77701,-10.31149 -1.006216,-14.66904 0.471349,-0.54469 0.986344,-1.02907 1.535161,-1.45239 0.548816,-0.42332 1.131453,-0.78558 1.738083,-1.08604 0.606629,-0.30045 1.237253,-0.53911 1.882045,-0.71521 0.644793,-0.17611 1.303752,-0.28966 1.967053,-0.33993 0.663301,-0.0503 1.330943,-0.0372 1.993102,0.0398 0.662158,0.0771 2.405508,0.20332 3.568824,-0.0459 1.101517,-0.23595 2.479042,-1.04812 3.100517,-1.34459 1.009893,-0.48177 5.485681,-3.83366 6.026501,-3.36567 0.54081,0.46799 -2.316611,4.98933 -2.868916,6.09808 -0.307016,0.61633 -0.714992,2.19984 -0.899084,3.33705 -0.154807,0.95631 -0.33926,2.2572 -0.16789,2.90142 0.17137,0.64423 0.28015,1.30308 0.32566,1.96672 0.0455,0.66364 0.0278,1.33208 -0.0539,1.99548 -0.0817,0.6634 -0.22728,1.32176 -0.43749,1.96526 -0.21022,0.64349 -0.48504,1.27211 -0.82515,1.87603 -0.340108,0.60393 -0.745494,1.18316 -1.216843,1.72785 z"
       sodipodi:nodetypes="ssssssssasssasssssss" />
  </g>
</svg>
